STARTFONT 2.1
FONT -Adobe-ITC Avant Garde Gothic-Book-O-Normal--18-180-75-75-P-103-ISO8859-1
SIZE 18 75 75
FONTBOUNDINGBOX 25 22 -4 -4

STARTPROPERTIES 30
FOUNDRY "Adobe"
FAMILY_NAME "ITC Avant Garde Gothic"
WEIGHT_NAME "Book"
SLANT "O"
SETWIDTH_NAME "Normal"
ADD_STYLE_NAME ""
PIXEL_SIZE 18
POINT_SIZE 180
RESOLUTION_X 75
RESOLUTION_Y 75
SPACING "P"
AVERAGE_WIDTH 103
CHARSET_REGISTRY "ISO8859"
CHARSET_ENCODING "1"
CAP_HEIGHT 14
X_HEIGHT 10
FACE_NAME "ITC Avant Garde Gothic Book Oblique"
COPYRIGHT "Copyright (c) 1984, 1987 Adobe Systems Incorporated. All Rights Reserved. Copyright (c) 1988, 1991 Digital Equipment Corporation. All Rights Reserved."
NOTICE "ITC Avant Garde Gothic is a registered trademark of International Typeface Corporation."
_DEC_DEVICE_FONTNAMES "PS=AvantGarde-BookOblique"
_DEC_PRODUCTINFO "DECwindows Fonts V2.2, 07-Nov-1991"
RELATIVE_SETWIDTH 50
RELATIVE_WEIGHT 40
CHARSET_COLLECTIONS "ASCII ISO8859-1 ADOBE-STANDARD"
FULL_NAME "ITC Avant Garde Gothic Book Oblique"
WEIGHT 10
QUAD_WIDTH 12
DEFAULT_CHAR 32
FONT_DESCENT 4
FONT_ASCENT 16
ENDPROPERTIES

CHARS 191

STARTCHAR space
ENCODING 32
SWIDTH 277 0
DWIDTH 5 0
BBX 1 1 0 0
BITMAP
00
ENDCHAR

STARTCHAR exclam
ENCODING 33
SWIDTH 295 0
DWIDTH 6 0
BBX 4 14 1 0
BITMAP
10
10
10
20
20
20
20
40
40
40
00
00
80
80
ENDCHAR

STARTCHAR quotedbl
ENCODING 34
SWIDTH 309 0
DWIDTH 6 0
BBX 4 5 2 9
BITMAP
90
90
90
90
90
ENDCHAR

STARTCHAR numbersign
ENCODING 35
SWIDTH 720 0
DWIDTH 13 0
BBX 12 13 0 0
BITMAP
0480
0480
0480
0480
7FF0
0900
0900
0900
FFE0
1200
1200
1200
1200
ENDCHAR

STARTCHAR dollar
ENCODING 36
SWIDTH 554 0
DWIDTH 10 0
BBX 9 16 0 -2
BITMAP
0400
0400
0E00
1100
2080
2080
1000
0C00
0200
0100
0100
8100
4200
3C00
1000
1000
ENDCHAR

STARTCHAR percent
ENCODING 37
SWIDTH 775 0
DWIDTH 14 0
BBX 11 14 1 0
BITMAP
3880
4480
4500
8900
8A00
7200
0400
0400
09C0
0A20
1220
1440
2440
2380
ENDCHAR

STARTCHAR ampersand
ENCODING 38
SWIDTH 757 0
DWIDTH 14 0
BBX 12 14 1 0
BITMAP
0700
0880
1080
1080
1100
0E00
1800
2410
4220
8140
8080
8140
4620
3810
ENDCHAR

STARTCHAR quoteright
ENCODING 39
SWIDTH 351 0
DWIDTH 6 0
BBX 2 4 3 10
BITMAP
40
40
80
80
ENDCHAR

STARTCHAR parenleft
ENCODING 40
SWIDTH 369 0
DWIDTH 7 0
BBX 7 17 1 -3
BITMAP
02
04
08
10
20
20
40
40
80
80
80
80
80
80
40
40
20
ENDCHAR

STARTCHAR parenright
ENCODING 41
SWIDTH 369 0
DWIDTH 7 0
BBX 7 17 -1 -3
BITMAP
08
04
04
02
02
02
02
02
02
04
04
08
08
10
20
40
80
ENDCHAR

STARTCHAR asterisk
ENCODING 42
SWIDTH 425 0
DWIDTH 9 0
BBX 6 5 2 9
BITMAP
48
30
FC
30
48
ENDCHAR

STARTCHAR plus
ENCODING 43
SWIDTH 606 0
DWIDTH 11 0
BBX 9 9 1 1
BITMAP
0800
0800
0800
0800
FF80
0800
0800
0800
0800
ENDCHAR

STARTCHAR comma
ENCODING 44
SWIDTH 277 0
DWIDTH 5 0
BBX 2 3 0 -1
BITMAP
40
40
80
ENDCHAR

STARTCHAR minus
ENCODING 45
SWIDTH 606 0
DWIDTH 11 0
BBX 8 1 1 5
BITMAP
FF
ENDCHAR

STARTCHAR period
ENCODING 46
SWIDTH 277 0
DWIDTH 5 0
BBX 1 2 1 0
BITMAP
80
80
ENDCHAR

STARTCHAR slash
ENCODING 47
SWIDTH 437 0
DWIDTH 10 0
BBX 7 14 2 0
BITMAP
02
02
04
04
08
08
10
10
20
20
40
40
80
80
ENDCHAR

STARTCHAR zero
ENCODING 48
SWIDTH 554 0
DWIDTH 10 0
BBX 10 14 0 0
BITMAP
0F00
1080
2040
2040
2040
4080
4080
4080
4080
8100
8100
8100
4200
3C00
ENDCHAR

STARTCHAR one
ENCODING 49
SWIDTH 554 0
DWIDTH 10 0
BBX 6 14 3 0
BITMAP
0C
14
28
48
90
10
10
10
20
20
20
40
40
40
ENDCHAR

STARTCHAR two
ENCODING 50
SWIDTH 554 0
DWIDTH 10 0
BBX 10 14 0 0
BITMAP
0F00
1080
2040
2040
0040
0080
0100
0200
0C00
1000
2000
4000
8000
FE00
ENDCHAR

STARTCHAR three
ENCODING 51
SWIDTH 554 0
DWIDTH 10 0
BBX 10 14 0 0
BITMAP
0700
0880
1040
0040
0040
0180
0E00
0100
0080
0080
8080
8080
4100
3E00
ENDCHAR

STARTCHAR four
ENCODING 52
SWIDTH 554 0
DWIDTH 10 0
BBX 9 14 0 0
BITMAP
0080
0180
0280
0480
0900
0900
1100
2200
4200
8200
FF80
0400
0400
0400
ENDCHAR

STARTCHAR five
ENCODING 53
SWIDTH 554 0
DWIDTH 10 0
BBX 10 14 0 0
BITMAP
1FC0
1000
2000
2000
2000
7E00
4100
0080
0080
0080
8080
8100
4200
3C00
ENDCHAR

STARTCHAR six
ENCODING 54
SWIDTH 554 0
DWIDTH 10 0
BBX 9 14 0 0
BITMAP
0100
0200
0400
0800
1000
3E00
4100
8080
8080
8080
8080
8080
4100
3E00
ENDCHAR

STARTCHAR seven
ENCODING 55
SWIDTH 554 0
DWIDTH 10 0
BBX 10 14 0 0
BITMAP
3FC0
0040
0080
0100
0100
0200
0400
0800
0800
1000
2000
4000
4000
8000
ENDCHAR

STARTCHAR eight
ENCODING 56
SWIDTH 554 0
DWIDTH 10 0
BBX 10 14 0 0
BITMAP
0F00
1080
2040
2040
2040
1080
3F00
4100
8080
8080
8080
8100
4200
3C00
ENDCHAR

STARTCHAR nine
ENCODING 57
SWIDTH 554 0
DWIDTH 10 0
BBX 9 14 1 0
BITMAP
3E00
4100
8080
8080
8080
8080
8080
4100
3E00
0400
0800
1000
2000
4000
ENDCHAR

STARTCHAR colon
ENCODING 58
SWIDTH 277 0
DWIDTH 5 0
BBX 3 10 0 0
BITMAP
20
20
00
00
00
00
00
00
80
80
ENDCHAR

STARTCHAR semicolon
ENCODING 59
SWIDTH 277 0
DWIDTH 5 0
BBX 4 11 0 -1
BITMAP
10
10
00
00
00
00
00
00
40
40
80
ENDCHAR

STARTCHAR less
ENCODING 60
SWIDTH 606 0
DWIDTH 12 0
BBX 10 9 1 1
BITMAP
00C0
0300
0C00
3000
C000
3000
0C00
0300
00C0
ENDCHAR

STARTCHAR equal
ENCODING 61
SWIDTH 606 0
DWIDTH 10 0
BBX 8 4 1 3
BITMAP
FF
00
00
FF
ENDCHAR

STARTCHAR greater
ENCODING 62
SWIDTH 606 0
DWIDTH 12 0
BBX 10 9 1 1
BITMAP
C000
3000
0C00
0300
00C0
0300
0C00
3000
C000
ENDCHAR

STARTCHAR question
ENCODING 63
SWIDTH 591 0
DWIDTH 10 0
BBX 8 14 2 0
BITMAP
3C
42
81
81
01
02
04
18
20
40
40
00
80
80
ENDCHAR

STARTCHAR at
ENCODING 64
SWIDTH 867 0
DWIDTH 17 0
BBX 14 14 1 0
BITMAP
03C0
0C30
1008
21A4
4664
4824
8824
9044
9048
88C8
4730
4000
3030
0FC0
ENDCHAR

STARTCHAR A
ENCODING 65
SWIDTH 740 0
DWIDTH 14 0
BBX 13 14 -1 0
BITMAP
0020
0060
00A0
00A0
0120
0210
0410
0410
0FF0
1010
2008
2008
4008
8008
ENDCHAR

STARTCHAR B
ENCODING 66
SWIDTH 574 0
DWIDTH 10 0
BBX 9 14 0 0
BITMAP
1E00
1100
1080
2080
2080
2100
3E00
4100
4080
4080
4080
8100
8200
FC00
ENDCHAR

STARTCHAR C
ENCODING 67
SWIDTH 813 0
DWIDTH 15 0
BBX 13 14 1 0
BITMAP
07C0
1820
2010
4008
4000
8000
8000
8000
8000
8000
8010
4020
20C0
1F00
ENDCHAR

STARTCHAR D
ENCODING 68
SWIDTH 744 0
DWIDTH 13 0
BBX 12 14 0 0
BITMAP
1F80
1060
1010
2010
2010
2010
2010
4010
4010
4020
4040
8040
8180
FE00
ENDCHAR

STARTCHAR E
ENCODING 69
SWIDTH 536 0
DWIDTH 10 0
BBX 10 14 0 0
BITMAP
1FC0
1000
1000
2000
2000
2000
3F80
4000
4000
4000
4000
8000
8000
FE00
ENDCHAR

STARTCHAR F
ENCODING 70
SWIDTH 485 0
DWIDTH 9 0
BBX 10 14 0 0
BITMAP
1FC0
1000
1000
2000
2000
2000
3F00
4000
4000
4000
4000
8000
8000
8000
ENDCHAR

STARTCHAR G
ENCODING 71
SWIDTH 872 0
DWIDTH 15 0
BBX 13 14 1 0
BITMAP
07C0
1820
2010
4008
4000
8000
8000
8000
87F0
8010
8010
4020
20C0
1F00
ENDCHAR

STARTCHAR H
ENCODING 72
SWIDTH 683 0
DWIDTH 12 0
BBX 12 14 0 0
BITMAP
1010
1010
1010
2020
2020
2020
3FC0
4040
4040
4040
4040
8080
8080
8080
ENDCHAR

STARTCHAR I
ENCODING 73
SWIDTH 226 0
DWIDTH 4 0
BBX 4 14 0 0
BITMAP
10
10
10
20
20
20
20
40
40
40
40
80
80
80
ENDCHAR

STARTCHAR J
ENCODING 74
SWIDTH 482 0
DWIDTH 8 0
BBX 9 14 -1 0
BITMAP
0080
0080
0080
0100
0100
0100
0100
0200
0200
0200
0200
8400
8400
7800
ENDCHAR

STARTCHAR K
ENCODING 75
SWIDTH 591 0
DWIDTH 11 0
BBX 11 14 0 0
BITMAP
1020
1040
1080
2100
2200
2400
2800
5800
6400
4400
4200
8100
8100
8080
ENDCHAR

STARTCHAR L
ENCODING 76
SWIDTH 462 0
DWIDTH 8 0
BBX 7 14 0 0
BITMAP
10
10
10
20
20
20
20
40
40
40
40
80
80
FE
ENDCHAR

STARTCHAR M
ENCODING 77
SWIDTH 919 0
DWIDTH 16 0
BBX 15 14 0 0
BITMAP
1002
1006
100A
280A
2814
2824
2824
4444
4448
4488
4508
8508
8210
8210
ENDCHAR

STARTCHAR N
ENCODING 78
SWIDTH 740 0
DWIDTH 14 0
BBX 13 14 0 0
BITMAP
1008
1008
1808
2810
2410
2410
2410
4220
4120
4120
4120
80C0
8040
8040
ENDCHAR

STARTCHAR O
ENCODING 79
SWIDTH 869 0
DWIDTH 15 0
BBX 13 14 1 0
BITMAP
07C0
1820
2010
4008
4008
8008
8008
8008
8008
8010
8010
4020
20C0
1F00
ENDCHAR

STARTCHAR P
ENCODING 80
SWIDTH 592 0
DWIDTH 10 0
BBX 10 14 0 0
BITMAP
1F00
1080
1040
2040
2040
2080
2100
3E00
4000
4000
4000
8000
8000
8000
ENDCHAR

STARTCHAR Q
ENCODING 81
SWIDTH 871 0
DWIDTH 16 0
BBX 13 14 1 0
BITMAP
07C0
1820
2010
4008
4008
8008
8008
8008
8008
FC10
8310
40A0
20E0
1F18
ENDCHAR

STARTCHAR R
ENCODING 82
SWIDTH 607 0
DWIDTH 11 0
BBX 11 14 0 0
BITMAP
1F80
1040
1020
2020
2020
2040
2080
5F00
4800
4400
4200
8200
8100
8080
ENDCHAR

STARTCHAR S
ENCODING 83
SWIDTH 498 0
DWIDTH 9 0
BBX 9 14 0 0
BITMAP
0E00
1100
2080
2080
2000
2000
1800
0400
0200
0200
8200
8200
4400
3800
ENDCHAR

STARTCHAR T
ENCODING 84
SWIDTH 426 0
DWIDTH 9 0
BBX 8 14 1 0
BITMAP
FF
08
08
10
10
10
10
20
20
20
20
40
40
40
ENDCHAR

STARTCHAR U
ENCODING 85
SWIDTH 655 0
DWIDTH 12 0
BBX 11 14 1 0
BITMAP
2020
2020
2020
4040
4040
4040
4040
8080
8080
8080
8080
8100
4200
3C00
ENDCHAR

STARTCHAR V
ENCODING 86
SWIDTH 702 0
DWIDTH 12 0
BBX 11 14 1 0
BITMAP
8020
8020
8040
8080
8080
8100
8200
4200
4400
4800
5000
5000
6000
4000
ENDCHAR

STARTCHAR W
ENCODING 87
SWIDTH 960 0
DWIDTH 18 0
BBX 17 14 1 0
BITMAP
808080
808080
808100
818100
828200
828200
444400
444400
484800
484800
505000
505000
606000
404000
ENDCHAR

STARTCHAR X
ENCODING 88
SWIDTH 609 0
DWIDTH 11 0
BBX 14 14 -2 0
BITMAP
0804
0808
0410
0420
0240
0280
0300
0300
0480
0880
1040
2040
4020
8020
ENDCHAR

STARTCHAR Y
ENCODING 89
SWIDTH 592 0
DWIDTH 10 0
BBX 9 14 1 0
BITMAP
8080
8080
8100
4200
4200
4400
2800
2800
1000
2000
2000
2000
4000
4000
ENDCHAR

STARTCHAR Z
ENCODING 90
SWIDTH 480 0
DWIDTH 9 0
BBX 9 14 0 0
BITMAP
3F80
0080
0080
0100
0200
0400
0800
0800
1000
2000
4000
8000
8000
FE00
ENDCHAR

STARTCHAR bracketleft
ENCODING 91
SWIDTH 351 0
DWIDTH 6 0
BBX 7 17 0 -3
BITMAP
06
08
10
10
10
20
20
20
20
40
40
40
80
80
80
80
60
ENDCHAR

STARTCHAR backslash
ENCODING 92
SWIDTH 605 0
DWIDTH 11 0
BBX 7 14 2 0
BITMAP
80
80
40
40
20
20
10
10
08
08
04
04
02
02
ENDCHAR

STARTCHAR bracketright
ENCODING 93
SWIDTH 351 0
DWIDTH 6 0
BBX 7 17 -1 -3
BITMAP
0C
02
02
02
02
04
04
04
08
08
08
08
10
10
10
20
C0
ENDCHAR

STARTCHAR asciicircum
ENCODING 94
SWIDTH 672 0
DWIDTH 10 0
BBX 7 8 1 6
BITMAP
10
10
28
28
44
44
82
82
ENDCHAR

STARTCHAR underscore
ENCODING 95
SWIDTH 500 0
DWIDTH 9 0
BBX 9 1 0 -3
BITMAP
FF80
ENDCHAR

STARTCHAR quoteleft
ENCODING 96
SWIDTH 351 0
DWIDTH 6 0
BBX 2 4 3 10
BITMAP
80
80
40
40
ENDCHAR

STARTCHAR a
ENCODING 97
SWIDTH 683 0
DWIDTH 12 0
BBX 11 10 0 0
BITMAP
0F20
30E0
4020
4040
8040
8040
8040
4080
6180
1E80
ENDCHAR

STARTCHAR b
ENCODING 98
SWIDTH 682 0
DWIDTH 12 0
BBX 12 14 -1 0
BITMAP
0800
0800
0800
1000
1780
3860
2020
2010
2010
4010
4020
6020
50C0
8F00
ENDCHAR

STARTCHAR c
ENCODING 99
SWIDTH 647 0
DWIDTH 12 0
BBX 10 10 0 0
BITMAP
0F00
3080
4040
4000
8000
8000
8000
4040
6180
1E00
ENDCHAR

STARTCHAR d
ENCODING 100
SWIDTH 685 0
DWIDTH 12 0
BBX 13 14 0 0
BITMAP
0008
0008
0008
0010
0F10
3090
4060
4020
8020
8020
8040
4040
61C0
1E40
ENDCHAR

STARTCHAR e
ENCODING 101
SWIDTH 650 0
DWIDTH 12 0
BBX 11 10 0 0
BITMAP
0F00
30C0
4040
4020
FFE0
8000
8000
4040
6180
1E00
ENDCHAR

STARTCHAR f
ENCODING 102
SWIDTH 314 0
DWIDTH 6 0
BBX 8 14 0 0
BITMAP
07
08
10
10
7C
20
20
20
40
40
40
40
80
80
ENDCHAR

STARTCHAR g
ENCODING 103
SWIDTH 673 0
DWIDTH 12 0
BBX 12 14 0 -4
BITMAP
0F10
30D0
4060
4020
8020
8020
8040
4040
61C0
1E40
0080
4080
2100
1E00
ENDCHAR

STARTCHAR h
ENCODING 104
SWIDTH 610 0
DWIDTH 11 0
BBX 10 14 0 0
BITMAP
1000
1000
1000
2000
2700
3880
2040
6040
4040
4080
4080
8080
8100
8100
ENDCHAR

STARTCHAR i
ENCODING 105
SWIDTH 200 0
DWIDTH 4 0
BBX 4 13 0 0
BITMAP
10
10
00
20
20
20
40
40
40
40
80
80
80
ENDCHAR

STARTCHAR j
ENCODING 106
SWIDTH 203 0
DWIDTH 4 0
BBX 8 17 -4 -4
BITMAP
01
01
00
02
02
02
04
04
04
04
08
08
08
08
10
10
E0
ENDCHAR

STARTCHAR k
ENCODING 107
SWIDTH 502 0
DWIDTH 9 0
BBX 9 14 0 0
BITMAP
1000
1000
1000
2000
2000
2080
2300
6400
4800
7000
5000
8800
8400
8200
ENDCHAR

STARTCHAR l
ENCODING 108
SWIDTH 200 0
DWIDTH 4 0
BBX 4 14 0 0
BITMAP
10
10
10
20
20
20
20
40
40
40
40
80
80
80
ENDCHAR

STARTCHAR m
ENCODING 109
SWIDTH 938 0
DWIDTH 16 0
BBX 14 10 0 0
BITMAP
2E38
3144
2084
2084
4104
4108
4108
8208
8210
8210
ENDCHAR

STARTCHAR n
ENCODING 110
SWIDTH 610 0
DWIDTH 11 0
BBX 10 10 0 0
BITMAP
2700
3880
2040
2040
4040
4080
4080
8080
8100
8100
ENDCHAR

STARTCHAR o
ENCODING 111
SWIDTH 655 0
DWIDTH 12 0
BBX 11 10 0 0
BITMAP
0F00
30C0
4040
4020
8020
8020
8040
4040
6180
1E00
ENDCHAR

STARTCHAR p
ENCODING 112
SWIDTH 682 0
DWIDTH 12 0
BBX 13 14 -2 -4
BITMAP
0BC0
0C30
1010
1008
1008
2008
2010
3010
2860
4780
4000
4000
8000
8000
ENDCHAR

STARTCHAR q
ENCODING 113
SWIDTH 682 0
DWIDTH 12 0
BBX 12 14 0 -4
BITMAP
0F10
30D0
4020
4020
8020
8020
8040
4040
61C0
1E80
0080
0080
0100
0100
ENDCHAR

STARTCHAR r
ENCODING 114
SWIDTH 301 0
DWIDTH 6 0
BBX 6 10 0 0
BITMAP
2C
30
20
40
40
40
40
80
80
80
ENDCHAR

STARTCHAR s
ENCODING 115
SWIDTH 388 0
DWIDTH 8 0
BBX 7 10 0 0
BITMAP
3C
42
42
40
30
08
04
84
84
78
ENDCHAR

STARTCHAR t
ENCODING 116
SWIDTH 339 0
DWIDTH 6 0
BBX 5 14 1 0
BITMAP
10
10
10
20
F8
20
20
40
40
40
40
80
80
80
ENDCHAR

STARTCHAR u
ENCODING 117
SWIDTH 608 0
DWIDTH 11 0
BBX 10 10 0 0
BITMAP
2040
2040
4040
4080
4080
4080
8080
8100
4300
3D00
ENDCHAR

STARTCHAR v
ENCODING 118
SWIDTH 554 0
DWIDTH 11 0
BBX 10 10 1 0
BITMAP
8040
8080
8100
4100
4200
4400
4800
2800
3000
2000
ENDCHAR

STARTCHAR w
ENCODING 119
SWIDTH 831 0
DWIDTH 14 0
BBX 13 10 1 0
BITMAP
8008
8410
8410
8A20
8A20
9240
A280
A280
C300
8200
ENDCHAR

STARTCHAR x
ENCODING 120
SWIDTH 480 0
DWIDTH 9 0
BBX 10 10 -1 0
BITMAP
1040
1080
0900
0A00
0400
0C00
1200
2200
4100
8100
ENDCHAR

STARTCHAR y
ENCODING 121
SWIDTH 536 0
DWIDTH 9 0
BBX 11 14 -1 -4
BITMAP
2020
2040
2080
1080
1100
1200
1400
1400
0800
1000
2000
2000
4000
8000
ENDCHAR

STARTCHAR z
ENCODING 122
SWIDTH 425 0
DWIDTH 8 0
BBX 9 10 -1 0
BITMAP
3F80
0100
0200
0400
0800
1000
2000
4000
8000
FC00
ENDCHAR

STARTCHAR braceleft
ENCODING 123
SWIDTH 351 0
DWIDTH 7 0
BBX 7 17 1 -3
BITMAP
06
08
10
10
10
20
20
40
80
40
40
40
80
80
80
80
60
ENDCHAR

STARTCHAR bar
ENCODING 124
SWIDTH 672 0
DWIDTH 12 0
BBX 4 14 4 0
BITMAP
10
10
10
20
20
20
20
40
40
40
40
80
80
80
ENDCHAR

STARTCHAR braceright
ENCODING 125
SWIDTH 351 0
DWIDTH 7 0
BBX 7 17 -1 -3
BITMAP
0C
02
02
02
02
04
04
04
02
04
08
08
10
10
10
20
C0
ENDCHAR

STARTCHAR asciitilde
ENCODING 126
SWIDTH 606 0
DWIDTH 12 0
BBX 9 3 1 4
BITMAP
3080
4900
8600
ENDCHAR

STARTCHAR space
ENCODING 160
SWIDTH 277 0
DWIDTH 5 0
BBX 1 1 0 0
BITMAP
00
ENDCHAR

STARTCHAR exclamdown
ENCODING 161
SWIDTH 295 0
DWIDTH 5 0
BBX 4 13 0 -3
BITMAP
10
10
00
20
20
20
40
40
40
40
80
80
80
ENDCHAR

STARTCHAR cent
ENCODING 162
SWIDTH 554 0
DWIDTH 11 0
BBX 8 12 1 1
BITMAP
04
04
1E
61
40
80
80
80
42
3C
10
10
ENDCHAR

STARTCHAR sterling
ENCODING 163
SWIDTH 554 0
DWIDTH 13 0
BBX 11 14 0 0
BITMAP
0780
0840
1020
1020
1000
0800
0800
3F80
0800
0800
0820
1040
2080
FF00
ENDCHAR

STARTCHAR currency
ENCODING 164
SWIDTH 554 0
DWIDTH 11 0
BBX 8 8 1 3
BITMAP
99
66
42
81
81
42
66
99
ENDCHAR

STARTCHAR yen
ENCODING 165
SWIDTH 554 0
DWIDTH 11 0
BBX 11 14 0 0
BITMAP
4020
4040
4080
2100
2200
1400
7780
1800
FF00
1000
1000
2000
2000
2000
ENDCHAR

STARTCHAR brokenbar
ENCODING 166
SWIDTH 672 0
DWIDTH 12 0
BBX 4 14 4 0
BITMAP
10
10
10
20
20
00
00
00
40
40
40
80
80
80
ENDCHAR

STARTCHAR section
ENCODING 167
SWIDTH 615 0
DWIDTH 12 0
BBX 11 18 0 -4
BITMAP
0780
0840
1020
1000
1000
0C00
1300
2080
2040
2040
1040
0C80
0300
0100
8100
8100
4200
3C00
ENDCHAR

STARTCHAR dieresis
ENCODING 168
SWIDTH 369 0
DWIDTH 7 0
BBX 4 2 3 12
BITMAP
90
90
ENDCHAR

STARTCHAR copyright
ENCODING 169
SWIDTH 747 0
DWIDTH 15 0
BBX 13 13 1 1
BITMAP
0F80
3060
4010
4710
8888
9008
9008
9008
8888
4710
4010
3060
0F80
ENDCHAR

STARTCHAR ordfeminine
ENCODING 170
SWIDTH 369 0
DWIDTH 7 0
BBX 7 8 0 6
BITMAP
1A
26
42
44
4C
34
00
FC
ENDCHAR

STARTCHAR guillemotleft
ENCODING 171
SWIDTH 425 0
DWIDTH 9 0
BBX 6 5 1 3
BITMAP
24
48
90
90
48
ENDCHAR

STARTCHAR logicalnot
ENCODING 172
SWIDTH 606 0
DWIDTH 11 0
BBX 9 5 1 2
BITMAP
FF80
0080
0080
0080
0080
ENDCHAR

STARTCHAR hyphen
ENCODING 173
SWIDTH 332 0
DWIDTH 6 0
BBX 5 1 0 5
BITMAP
F8
ENDCHAR

STARTCHAR registered
ENCODING 174
SWIDTH 747 0
DWIDTH 15 0
BBX 13 13 1 1
BITMAP
0F80
3060
4010
4F10
8888
8888
8F08
8A08
8908
4890
4010
3060
0F80
ENDCHAR

STARTCHAR macron
ENCODING 175
SWIDTH 485 0
DWIDTH 10 0
BBX 6 1 3 13
BITMAP
FC
ENDCHAR

STARTCHAR degree
ENCODING 176
SWIDTH 400 0
DWIDTH 7 0
BBX 5 5 2 9
BITMAP
70
88
88
88
70
ENDCHAR

STARTCHAR plusminus
ENCODING 177
SWIDTH 606 0
DWIDTH 11 0
BBX 9 9 1 1
BITMAP
0400
0400
0400
7F80
0800
0800
0800
0000
FF00
ENDCHAR

STARTCHAR twosuperior
ENCODING 178
SWIDTH 332 0
DWIDTH 6 0
BBX 6 8 0 6
BITMAP
38
44
44
08
10
20
40
F8
ENDCHAR

STARTCHAR threesuperior
ENCODING 179
SWIDTH 332 0
DWIDTH 6 0
BBX 6 8 0 6
BITMAP
38
44
04
18
04
84
88
70
ENDCHAR

STARTCHAR acute
ENCODING 180
SWIDTH 375 0
DWIDTH 7 0
BBX 4 3 3 11
BITMAP
30
40
80
ENDCHAR

STARTCHAR mu
ENCODING 181
SWIDTH 608 0
DWIDTH 11 0
BBX 11 14 -1 -4
BITMAP
1020
1020
1020
2040
2040
2040
4040
4080
6180
5E80
8000
8000
8000
8000
ENDCHAR

STARTCHAR paragraph
ENCODING 182
SWIDTH 564 0
DWIDTH 10 0
BBX 9 17 1 -3
BITMAP
3F80
7900
F900
F900
F900
F200
7200
1200
1200
2400
2400
2400
2400
4800
4800
4800
4800
ENDCHAR

STARTCHAR periodcentered
ENCODING 183
SWIDTH 277 0
DWIDTH 4 0
BBX 1 2 1 5
BITMAP
80
80
ENDCHAR

STARTCHAR cedilla
ENCODING 184
SWIDTH 324 0
DWIDTH 6 0
BBX 4 4 0 -4
BITMAP
20
10
90
60
ENDCHAR

STARTCHAR onesuperior
ENCODING 185
SWIDTH 332 0
DWIDTH 6 0
BBX 2 8 2 6
BITMAP
C0
40
40
40
80
80
80
80
ENDCHAR

STARTCHAR ordmasculine
ENCODING 186
SWIDTH 369 0
DWIDTH 7 0
BBX 7 8 0 6
BITMAP
1C
22
42
42
44
38
00
FC
ENDCHAR

STARTCHAR guillemotright
ENCODING 187
SWIDTH 425 0
DWIDTH 9 0
BBX 6 5 1 3
BITMAP
48
24
24
48
90
ENDCHAR

STARTCHAR onequarter
ENCODING 188
SWIDTH 831 0
DWIDTH 16 0
BBX 11 14 3 0
BITMAP
C100
4100
4200
4200
8400
8400
8860
88A0
1120
1240
2440
27E0
4080
4080
ENDCHAR

STARTCHAR onehalf
ENCODING 189
SWIDTH 831 0
DWIDTH 16 0
BBX 11 14 3 0
BITMAP
C100
4100
4200
4200
8400
8400
89C0
8A20
1220
1040
2080
2100
4200
47C0
ENDCHAR

STARTCHAR threequarters
ENCODING 190
SWIDTH 831 0
DWIDTH 16 0
BBX 14 14 0 0
BITMAP
3820
4420
0440
1840
0480
8480
890C
7114
0224
0248
0488
04FC
0810
0810
ENDCHAR

STARTCHAR questiondown
ENCODING 191
SWIDTH 591 0
DWIDTH 10 0
BBX 8 14 0 -4
BITMAP
01
01
00
02
02
04
18
20
40
80
81
81
42
3C
ENDCHAR

STARTCHAR Agrave
ENCODING 192
SWIDTH 740 0
DWIDTH 14 0
BBX 13 18 -1 0
BITMAP
0180
0040
0020
0000
0020
0060
00A0
00A0
0120
0210
0410
0410
0FF0
1010
2008
2008
4008
8008
ENDCHAR

STARTCHAR Aacute
ENCODING 193
SWIDTH 740 0
DWIDTH 14 0
BBX 14 18 -1 0
BITMAP
000C
0010
0020
0000
0020
0060
00A0
00A0
0120
0210
0410
0410
0FF0
1010
2008
2008
4008
8008
ENDCHAR

STARTCHAR Acircumflex
ENCODING 194
SWIDTH 740 0
DWIDTH 14 0
BBX 13 18 -1 0
BITMAP
0030
0048
0088
0000
0020
0060
00A0
00A0
0120
0210
0410
0410
0FF0
1010
2008
2008
4008
8008
ENDCHAR

STARTCHAR Atilde
ENCODING 195
SWIDTH 740 0
DWIDTH 14 0
BBX 14 17 -1 0
BITMAP
00E4
0138
0000
0020
0060
00A0
00A0
0120
0210
0410
0410
0FF0
1010
2008
2008
4008
8008
ENDCHAR

STARTCHAR Adieresis
ENCODING 196
SWIDTH 740 0
DWIDTH 14 0
BBX 13 17 -1 0
BITMAP
0090
0090
0000
0020
0060
00A0
00A0
0120
0210
0410
0410
0FF0
1010
2008
2008
4008
8008
ENDCHAR

STARTCHAR Aring
ENCODING 197
SWIDTH 740 0
DWIDTH 14 0
BBX 13 18 -1 0
BITMAP
0030
0048
0048
0030
0020
0060
00A0
00A0
0120
0210
0410
0410
0FF0
1010
2008
2008
4008
8008
ENDCHAR

STARTCHAR AE
ENCODING 198
SWIDTH 992 0
DWIDTH 17 0
BBX 16 14 0 0
BITMAP
003F
0060
00A0
0120
0140
0240
047E
0480
0F80
1080
2080
2100
4100
81F8
ENDCHAR

STARTCHAR Ccedilla
ENCODING 199
SWIDTH 813 0
DWIDTH 15 0
BBX 13 18 1 -4
BITMAP
07C0
1820
2010
4008
4000
8000
8000
8000
8000
8000
8010
4020
20C0
1F00
0400
0200
1200
0C00
ENDCHAR

STARTCHAR Egrave
ENCODING 200
SWIDTH 536 0
DWIDTH 10 0
BBX 10 18 0 0
BITMAP
1800
0400
0200
0000
1FC0
1000
1000
2000
2000
2000
3F80
4000
4000
4000
4000
8000
8000
FE00
ENDCHAR

STARTCHAR Eacute
ENCODING 201
SWIDTH 536 0
DWIDTH 10 0
BBX 10 18 0 0
BITMAP
00C0
0100
0200
0000
1FC0
1000
1000
2000
2000
2000
3F80
4000
4000
4000
4000
8000
8000
FE00
ENDCHAR

STARTCHAR Ecircumflex
ENCODING 202
SWIDTH 536 0
DWIDTH 10 0
BBX 10 18 0 0
BITMAP
0300
0480
0880
0000
1FC0
1000
1000
2000
2000
2000
3F80
4000
4000
4000
4000
8000
8000
FE00
ENDCHAR

STARTCHAR Edieresis
ENCODING 203
SWIDTH 536 0
DWIDTH 10 0
BBX 10 17 0 0
BITMAP
0480
0480
0000
1FC0
1000
1000
2000
2000
2000
3F80
4000
4000
4000
4000
8000
8000
FE00
ENDCHAR

STARTCHAR Igrave
ENCODING 204
SWIDTH 226 0
DWIDTH 4 0
BBX 4 18 0 0
BITMAP
C0
20
10
00
10
10
10
20
20
20
20
40
40
40
40
80
80
80
ENDCHAR

STARTCHAR Iacute
ENCODING 205
SWIDTH 226 0
DWIDTH 4 0
BBX 7 18 0 0
BITMAP
06
08
10
00
10
10
10
20
20
20
20
40
40
40
40
80
80
80
ENDCHAR

STARTCHAR Icircumflex
ENCODING 206
SWIDTH 226 0
DWIDTH 4 0
BBX 6 18 0 0
BITMAP
18
24
44
00
10
10
10
20
20
20
20
40
40
40
40
80
80
80
ENDCHAR

STARTCHAR Idieresis
ENCODING 207
SWIDTH 226 0
DWIDTH 4 0
BBX 6 17 0 0
BITMAP
24
24
00
10
10
10
20
20
20
20
40
40
40
40
80
80
80
ENDCHAR

STARTCHAR Eth
ENCODING 208
SWIDTH 790 0
DWIDTH 13 0
BBX 12 14 0 0
BITMAP
1F80
1060
1010
2010
2010
2010
F810
4010
4010
4020
4040
8040
8180
FE00
ENDCHAR

STARTCHAR Ntilde
ENCODING 209
SWIDTH 740 0
DWIDTH 14 0
BBX 13 17 0 0
BITMAP
0390
04E0
0000
1008
1008
1808
2810
2410
2410
2410
4220
4120
4120
4120
80C0
8040
8040
ENDCHAR

STARTCHAR Ograve
ENCODING 210
SWIDTH 869 0
DWIDTH 15 0
BBX 13 18 1 0
BITMAP
0C00
0200
0100
0000
07C0
1820
2010
4008
4008
8008
8008
8008
8008
8010
8010
4020
20C0
1F00
ENDCHAR

STARTCHAR Oacute
ENCODING 211
SWIDTH 869 0
DWIDTH 15 0
BBX 13 18 1 0
BITMAP
0060
0080
0100
0000
07C0
1820
2010
4008
4008
8008
8008
8008
8008
8010
8010
4020
20C0
1F00
ENDCHAR

STARTCHAR Ocircumflex
ENCODING 212
SWIDTH 869 0
DWIDTH 15 0
BBX 13 18 1 0
BITMAP
0180
0240
0440
0000
07C0
1820
2010
4008
4008
8008
8008
8008
8008
8010
8010
4020
20C0
1F00
ENDCHAR

STARTCHAR Otilde
ENCODING 213
SWIDTH 869 0
DWIDTH 15 0
BBX 13 17 1 0
BITMAP
0390
04E0
0000
07C0
1820
2010
4008
4008
8008
8008
8008
8008
8010
8010
4020
20C0
1F00
ENDCHAR

STARTCHAR Odieresis
ENCODING 214
SWIDTH 869 0
DWIDTH 15 0
BBX 13 17 1 0
BITMAP
0240
0240
0000
07C0
1820
2010
4008
4008
8008
8008
8008
8008
8010
8010
4020
20C0
1F00
ENDCHAR

STARTCHAR multiply
ENCODING 215
SWIDTH 606 0
DWIDTH 11 0
BBX 10 9 0 1
BITMAP
4040
2080
1100
0A00
0C00
1400
2200
4100
8080
ENDCHAR

STARTCHAR Oslash
ENCODING 216
SWIDTH 868 0
DWIDTH 16 0
BBX 14 14 0 0
BITMAP
03E4
0C18
1018
2024
2044
4084
4104
4204
4404
4808
5008
2010
5060
8F80
ENDCHAR

STARTCHAR Ugrave
ENCODING 217
SWIDTH 655 0
DWIDTH 12 0
BBX 11 18 1 0
BITMAP
1800
0400
0200
0000
2020
2020
2020
4040
4040
4040
4040
8080
8080
8080
8080
8100
4200
3C00
ENDCHAR

STARTCHAR Uacute
ENCODING 218
SWIDTH 655 0
DWIDTH 12 0
BBX 11 18 1 0
BITMAP
00C0
0100
0200
0000
2020
2020
2020
4040
4040
4040
4040
8080
8080
8080
8080
8100
4200
3C00
ENDCHAR

STARTCHAR Ucircumflex
ENCODING 219
SWIDTH 655 0
DWIDTH 12 0
BBX 11 18 1 0
BITMAP
0300
0480
0880
0000
2020
2020
2020
4040
4040
4040
4040
8080
8080
8080
8080
8100
4200
3C00
ENDCHAR

STARTCHAR Udieresis
ENCODING 220
SWIDTH 655 0
DWIDTH 12 0
BBX 11 17 1 0
BITMAP
0480
0480
0000
2020
2020
2020
4040
4040
4040
4040
8080
8080
8080
8080
8100
4200
3C00
ENDCHAR

STARTCHAR Yacute
ENCODING 221
SWIDTH 592 0
DWIDTH 10 0
BBX 9 18 1 0
BITMAP
0300
0400
0800
0000
8080
8080
8100
4200
4200
4400
2800
2800
1000
2000
2000
2000
4000
4000
ENDCHAR

STARTCHAR Thorn
ENCODING 222
SWIDTH 592 0
DWIDTH 10 0
BBX 9 14 0 0
BITMAP
1000
1000
1000
1E00
2100
2080
2080
4080
4100
4200
7C00
8000
8000
8000
ENDCHAR

STARTCHAR germandbls
ENCODING 223
SWIDTH 554 0
DWIDTH 11 0
BBX 10 14 0 0
BITMAP
0700
0880
1040
1040
1040
2080
2700
2100
4080
4080
4080
4080
A100
9E00
ENDCHAR

STARTCHAR agrave
ENCODING 224
SWIDTH 683 0
DWIDTH 12 0
BBX 11 14 0 0
BITMAP
0C00
0200
0100
0000
0F20
30E0
4020
4040
8040
8040
8040
4080
6180
1E80
ENDCHAR

STARTCHAR aacute
ENCODING 225
SWIDTH 683 0
DWIDTH 12 0
BBX 11 14 0 0
BITMAP
00C0
0100
0200
0000
0F20
30E0
4020
4040
8040
8040
8040
4080
6180
1E80
ENDCHAR

STARTCHAR acircumflex
ENCODING 226
SWIDTH 683 0
DWIDTH 12 0
BBX 11 14 0 0
BITMAP
0200
0500
0900
0000
0F20
30E0
4020
4040
8040
8040
8040
4080
6180
1E80
ENDCHAR

STARTCHAR atilde
ENCODING 227
SWIDTH 683 0
DWIDTH 12 0
BBX 11 13 0 0
BITMAP
0640
0980
0000
0F20
30E0
4020
4040
8040
8040
8040
4080
6180
1E80
ENDCHAR

STARTCHAR adieresis
ENCODING 228
SWIDTH 683 0
DWIDTH 12 0
BBX 11 13 0 0
BITMAP
0480
0480
0000
0F20
30E0
4020
4040
8040
8040
8040
4080
6180
1E80
ENDCHAR

STARTCHAR aring
ENCODING 229
SWIDTH 683 0
DWIDTH 12 0
BBX 11 14 0 0
BITMAP
0300
0480
0480
0300
0F20
30E0
4020
4040
8040
8040
8040
4080
6180
1E80
ENDCHAR

STARTCHAR ae
ENCODING 230
SWIDTH 1157 0
DWIDTH 21 0
BBX 20 10 0 0
BITMAP
0F2780
30B860
406020
402010
807FF0
804000
804000
406020
6190C0
1E8F00
ENDCHAR

STARTCHAR ccedilla
ENCODING 231
SWIDTH 647 0
DWIDTH 12 0
BBX 10 14 0 -4
BITMAP
0F00
3080
4040
4000
8000
8000
8000
4040
6180
1E00
0800
0400
2400
1800
ENDCHAR

STARTCHAR egrave
ENCODING 232
SWIDTH 650 0
DWIDTH 12 0
BBX 11 14 0 0
BITMAP
1800
0400
0200
0000
0F00
30C0
4040
4020
FFE0
8000
8000
4040
6180
1E00
ENDCHAR

STARTCHAR eacute
ENCODING 233
SWIDTH 650 0
DWIDTH 12 0
BBX 11 14 0 0
BITMAP
0180
0200
0400
0000
0F00
30C0
4040
4020
FFE0
8000
8000
4040
6180
1E00
ENDCHAR

STARTCHAR ecircumflex
ENCODING 234
SWIDTH 650 0
DWIDTH 12 0
BBX 11 14 0 0
BITMAP
0200
0500
0900
0000
0F00
30C0
4040
4020
FFE0
8000
8000
4040
6180
1E00
ENDCHAR

STARTCHAR edieresis
ENCODING 235
SWIDTH 650 0
DWIDTH 12 0
BBX 11 13 0 0
BITMAP
0900
0900
0000
0F00
30C0
4040
4020
FFE0
8000
8000
4040
6180
1E00
ENDCHAR

STARTCHAR igrave
ENCODING 236
SWIDTH 200 0
DWIDTH 4 0
BBX 4 14 0 0
BITMAP
C0
20
10
00
20
20
20
40
40
40
40
80
80
80
ENDCHAR

STARTCHAR iacute
ENCODING 237
SWIDTH 200 0
DWIDTH 4 0
BBX 6 14 0 0
BITMAP
0C
10
20
00
20
20
20
40
40
40
40
80
80
80
ENDCHAR

STARTCHAR icircumflex
ENCODING 238
SWIDTH 200 0
DWIDTH 4 0
BBX 5 14 0 0
BITMAP
10
28
48
00
20
20
20
40
40
40
40
80
80
80
ENDCHAR

STARTCHAR idieresis
ENCODING 239
SWIDTH 200 0
DWIDTH 4 0
BBX 4 13 0 0
BITMAP
50
50
00
20
20
20
40
40
40
40
80
80
80
ENDCHAR

STARTCHAR eth
ENCODING 240
SWIDTH 655 0
DWIDTH 12 0
BBX 11 14 0 0
BITMAP
7300
0C00
1300
0080
0FC0
30C0
4060
4020
8020
8020
8040
4040
6180
1E00
ENDCHAR

STARTCHAR ntilde
ENCODING 241
SWIDTH 610 0
DWIDTH 11 0
BBX 10 13 0 0
BITMAP
0640
0980
0000
2700
3880
2040
2040
4040
4080
4080
8080
8100
8100
ENDCHAR

STARTCHAR ograve
ENCODING 242
SWIDTH 655 0
DWIDTH 12 0
BBX 11 14 0 0
BITMAP
1800
0400
0200
0000
0F00
30C0
4040
4020
8020
8020
8040
4040
6180
1E00
ENDCHAR

STARTCHAR oacute
ENCODING 243
SWIDTH 655 0
DWIDTH 12 0
BBX 11 14 0 0
BITMAP
0180
0200
0400
0000
0F00
30C0
4040
4020
8020
8020
8040
4040
6180
1E00
ENDCHAR

STARTCHAR ocircumflex
ENCODING 244
SWIDTH 655 0
DWIDTH 12 0
BBX 11 14 0 0
BITMAP
0200
0500
0900
0000
0F00
30C0
4040
4020
8020
8020
8040
4040
6180
1E00
ENDCHAR

STARTCHAR otilde
ENCODING 245
SWIDTH 655 0
DWIDTH 12 0
BBX 11 13 0 0
BITMAP
0C80
1300
0000
0F00
30C0
4040
4020
8020
8020
8040
4040
6180
1E00
ENDCHAR

STARTCHAR odieresis
ENCODING 246
SWIDTH 655 0
DWIDTH 12 0
BBX 11 13 0 0
BITMAP
0900
0900
0000
0F00
30C0
4040
4020
8020
8020
8040
4040
6180
1E00
ENDCHAR

STARTCHAR divide
ENCODING 247
SWIDTH 606 0
DWIDTH 11 0
BBX 9 9 1 1
BITMAP
0400
0400
0000
0000
FF80
0000
0000
1000
1000
ENDCHAR

STARTCHAR oslash
ENCODING 248
SWIDTH 653 0
DWIDTH 12 0
BBX 11 10 0 0
BITMAP
0F20
30C0
40C0
4120
8220
8420
8840
5040
6180
9E00
ENDCHAR

STARTCHAR ugrave
ENCODING 249
SWIDTH 608 0
DWIDTH 11 0
BBX 10 14 0 0
BITMAP
1800
0400
0200
0000
2040
2040
4040
4080
4080
4080
8080
8100
4300
3D00
ENDCHAR

STARTCHAR uacute
ENCODING 250
SWIDTH 608 0
DWIDTH 11 0
BBX 10 14 0 0
BITMAP
0180
0200
0400
0000
2040
2040
4040
4080
4080
4080
8080
8100
4300
3D00
ENDCHAR

STARTCHAR ucircumflex
ENCODING 251
SWIDTH 608 0
DWIDTH 11 0
BBX 10 14 0 0
BITMAP
0200
0500
0900
0000
2040
2040
4040
4080
4080
4080
8080
8100
4300
3D00
ENDCHAR

STARTCHAR udieresis
ENCODING 252
SWIDTH 608 0
DWIDTH 11 0
BBX 10 13 0 0
BITMAP
0900
0900
0000
2040
2040
4040
4080
4080
4080
8080
8100
4300
3D00
ENDCHAR

STARTCHAR yacute
ENCODING 253
SWIDTH 536 0
DWIDTH 9 0
BBX 11 18 -1 -4
BITMAP
00C0
0100
0200
0000
2020
2040
2080
1080
1100
1200
1400
1400
0800
1000
2000
2000
4000
8000
ENDCHAR

STARTCHAR thorn
ENCODING 254
SWIDTH 682 0
DWIDTH 12 0
BBX 13 18 -2 -4
BITMAP
0400
0400
0400
0800
0BC0
0C30
1010
1008
1008
2008
2010
3010
2860
4780
4000
4000
8000
8000
ENDCHAR

STARTCHAR ydieresis
ENCODING 255
SWIDTH 536 0
DWIDTH 9 0
BBX 11 17 -1 -4
BITMAP
0480
0480
0000
2020
2040
2080
1080
1100
1200
1400
1400
0800
1000
2000
2000
4000
8000
ENDCHAR
ENDFONT
